<?xml version="1.0" encoding="UTF-8" standalone="no"?>
<!DOCTYPE svg PUBLIC "-//W3C//DTD SVG 1.1//EN" "http://www.w3.org/Graphics/SVG/1.1/DTD/svg11.dtd">
<svg width="100%" height="100%" viewBox="0 0 546 367" version="1.1" xmlns="http://www.w3.org/2000/svg" xmlns:xlink="http://www.w3.org/1999/xlink" xml:space="preserve" xmlns:serif="http://www.serif.com/" style="fill-rule:evenodd;clip-rule:evenodd;stroke-linejoin:round;stroke-miterlimit:2;" role="img" aria-labelledby="mtcLogoTitle mtcLogoDesc">
    <title id="mtcLogoTitle">mtc.berlin Logo</title>
    <desc id="mtcLogoDesc">The logo of mtc.berlin featuring two circular elements representing the company's brand identity</desc>
    <g transform="matrix(4.16667,0,0,4.16667,0,0)">
        <path d="M76.406,30.711C79.395,28.316 83.185,26.881 87.312,26.881C96.957,26.881 104.773,34.701 104.773,44.345C104.773,53.988 96.957,61.806 87.312,61.806C83.185,61.806 79.395,60.372 76.406,57.978C72.411,54.777 69.849,49.862 69.849,44.345C69.849,38.826 72.412,33.912 76.406,30.711ZM87.31,0.688C77.484,0.688 68.415,3.937 61.119,9.417C63.502,11.207 65.694,13.237 67.662,15.468C73.261,11.652 80.025,9.419 87.31,9.419C106.6,9.419 122.238,25.055 122.238,44.343C122.238,63.632 106.6,79.269 87.31,79.269C80.025,79.269 73.261,77.035 67.662,73.22C65.246,71.572 63.047,69.627 61.119,67.441C59.107,65.164 57.388,62.619 56.022,59.87C54.218,62.316 52.002,64.437 49.471,66.129C45.31,68.914 40.307,70.539 34.924,70.539C20.459,70.539 8.731,58.81 8.731,44.345C8.731,29.878 20.459,18.15 34.924,18.15C40.307,18.15 45.31,19.775 49.471,22.56C52.002,24.251 54.218,26.373 56.022,28.819C59.224,33.162 61.119,38.533 61.119,44.345C61.119,50.156 63.012,55.523 66.214,59.869C68.017,62.316 70.234,64.436 72.764,66.129C76.927,68.914 81.929,70.539 87.312,70.539C101.777,70.539 113.506,58.81 113.506,44.345C113.506,29.878 101.777,18.15 87.31,18.15C81.929,18.15 76.927,19.775 72.764,22.56C70.234,24.251 68.017,26.373 66.214,28.819C64.847,26.069 63.129,23.526 61.119,21.246C59.189,19.06 56.99,17.115 54.573,15.468C48.974,11.652 42.21,9.419 34.924,9.419C15.636,9.419 0,25.055 0,44.343C0,63.632 15.636,79.269 34.924,79.269C42.21,79.269 48.974,77.035 54.573,73.22C56.543,75.452 58.734,77.481 61.119,79.271C68.415,84.752 77.484,88 87.31,88C111.422,88 130.968,68.455 130.968,44.343C130.968,20.234 111.422,0.688 87.31,0.688Z" style="fill:rgb(157,0,89);fill-rule:nonzero;"/>
        <path d="M87.31,53.082C92.128,53.082 96.033,49.177 96.033,44.359C96.033,39.543 92.128,35.638 87.31,35.638C82.493,35.638 78.587,39.542 78.587,44.359C78.587,49.177 82.493,53.082 87.31,53.082Z" style="fill:rgb(157,0,89);fill-rule:nonzero;"/>
        <path d="M34.923,53.082C30.107,53.082 26.201,49.177 26.201,44.359C26.201,39.542 30.107,35.638 34.923,35.638C39.742,35.638 43.646,39.542 43.646,44.359C43.646,49.177 39.742,53.082 34.923,53.082ZM45.831,30.711C42.841,28.316 39.052,26.881 34.924,26.881C25.281,26.881 17.461,34.701 17.461,44.345C17.461,53.988 25.281,61.806 34.924,61.806C39.052,61.806 42.841,60.372 45.831,57.978C49.826,54.777 52.386,49.861 52.386,44.345C52.386,38.826 49.826,33.912 45.831,30.711Z" style="fill:rgb(157,0,89);fill-rule:nonzero;"/>
    </g>
</svg>
